<svg xmlns="http://www.w3.org/2000/svg" xml:space="preserve" width="2000" height="292" data-id="lg_CnmqAqVymOnakFbtb7" data-version="1" viewBox="0 0 2000 292"><g data-padding="20"><g transform="translate(10 5.27)scale(.9639)"><rect width="393.942" height="291.644" x="406.115" y="-399.312" fill="none" rx="0" ry="0" transform="translate(503.91 399.49)"/><g transform="translate(341.49 392.56)"><linearGradient id="a" x1="0" x2="1" y1="0" y2="0" gradientUnits="objectBoundingBox"><stop offset="0%" stop-color="#6ee2f5"/><stop offset="100%" stop-color="#6454f0"/></linearGradient><path fill="url(#a)" d="M933.736 227.08V51.06h21.68v176.02Z" transform="translate(-341.49 -392.56)"/></g><path fill="url(#a)" d="M996.966 227.08V123.07q.26-5.42-1.29-23.49l19.1-2.58 2.84 16.52q7.74-5.16 15.35-9.03 7.62-3.88 15.62-6.84 8-2.97 15.49-2.97 10.58 0 17.67 2.45 7.1 2.45 11.49 8.13t6.32 14.97q1.94 9.29 1.94 23.23v83.62h-20.65v-81.3q0-7.74-.26-13.81-.26-6.06-2.19-10.32-1.94-4.26-5.94-6.58-4-2.33-11.22-2.33-6.71 0-14.2 2.97-7.48 2.97-14.71 6.84t-14.71 9.03v95.5Zm172.66 0-47.74-129.82h22.71l31.49 91.62 5.67 20.39h.26l5.94-20.39 33.55-91.62h21.68l-50.33 129.82Zm94.47-129.56 20.64-3.1v130.34q0 23.22-8.51 38.32-8.52 15.1-26.59 25.42l-10.58-18.32q7.74-4.65 12.65-10.19 4.9-5.55 7.61-11.88 2.71-6.32 3.74-12.9 1.04-6.58 1.04-13.29Zm-4.13-37.43q0-5.93 4-9.93t9.93-4q6.2 0 10.46 4t4.26 9.93q0 5.94-4.26 9.94t-10.46 4q-5.93 0-9.93-4t-4-9.94"/><g transform="translate(191.07 348.798)scale(1.67)"><linearGradient id="b" x1="0" x2="1" y1="0" y2="0" gradientUnits="objectBoundingBox"><stop offset="0%" stop-color="#6ee2f5"/><stop offset="100%" stop-color="#6454f0"/></linearGradient><path fill="url(#b)" d="M376.38-139.38h30.85v4.78h-30.85Z" transform="translate(-30.68 -14.8)"/></g><g transform="translate(178.178 419.956)scale(1.67)"><linearGradient id="c" x1="0" x2="1" y1="0" y2="0" gradientUnits="objectBoundingBox"><stop offset="0%" stop-color="#6ee2f5"/><stop offset="100%" stop-color="#6454f0"/></linearGradient><path fill="url(#c)" d="M376.38-96.36h15.42v3.96h-15.42Z" transform="translate(-22.96 -57.41)"/></g><g transform="translate(214.985 399.215)scale(1.67)"><linearGradient id="d" x1="0" x2="1" y1="0" y2="0" gradientUnits="objectBoundingBox"><stop offset="0%" stop-color="#6ee2f5"/><stop offset="100%" stop-color="#6454f0"/></linearGradient><path fill="url(#d)" d="M440.5-132.18h-23.47v-11.53a5.2 5.2 0 0 0-5.19-5.2h-40.08a5.2 5.2 0 0 0-5.2 5.2v57.12a5.2 5.2 0 0 0 5.2 5.2h23.46v11.5a5.2 5.2 0 0 0 5.2 5.2h40.08a5.2 5.2 0 0 0 5.2-5.2v-57.1a5.2 5.2 0 0 0-5.2-5.2m-68.74 46.83c-.68 0-1.24-.56-1.24-1.24v-57.09c0-.69.56-1.24 1.24-1.24h40.07c.68 0 1.24.55 1.24 1.23v11.53h-12.65a5.2 5.2 0 0 0-5.12 4.48h-18.92v3.95h18.84v3h-18.84v3.95h18.84v3h-18.84v3.96h18.84v3h-18.84v3.96h18.84v17.5Zm69.97 15.49c0 .68-.56 1.23-1.24 1.23h-40.06c-.68 0-1.24-.55-1.24-1.23v-57.12c0-.68.56-1.24 1.24-1.24h40.08c.68 0 1.24.56 1.24 1.24Z" transform="translate(-45 -44.99)"/></g><g transform="translate(238.916 437.391)scale(1.67)"><linearGradient id="e" x1="0" x2="1" y1="0" y2="0" gradientUnits="objectBoundingBox"><stop offset="0%" stop-color="#6ee2f5"/><stop offset="100%" stop-color="#6454f0"/></linearGradient><path fill="url(#e)" d="M421.79-77.28v2.08h-2.6v-2c-1.24-.05-2.5-.23-3.3-.37v-3.17h1.99l.18 1.07c.6.02 1.18.03 1.94.03q2.1.01 2.09-1.38c0-.68-.35-.98-1.5-1.53l-1.95-.92c-1.83-.87-3.11-1.62-3.11-3.77 0-2.05 1.26-3.18 3.66-3.5v-1.94h2.6v1.85c1.3.07 2.65.28 3.14.41v3.04h-2l-.17-1q-.91-.07-1.89-.06c-1.33 0-2.05.27-2.05 1.15 0 .64.3.93 1.48 1.46l1.84.81c2.07.93 3.25 1.8 3.25 3.9 0 2.19-1.32 3.49-3.6 3.84" transform="translate(-59.33 -67.85)"/></g><g transform="translate(238.916 384.235)scale(1.67)"><linearGradient id="f" x1="0" x2="1" y1="0" y2="0" gradientUnits="objectBoundingBox"><stop offset="0%" stop-color="#6ee2f5"/><stop offset="100%" stop-color="#6454f0"/></linearGradient><path fill="url(#f)" d="M405.04-117.75h30.85v3.96h-30.85Z" transform="translate(-59.33 -36.02)"/></g><g transform="translate(238.916 395.858)scale(1.67)"><linearGradient id="g" x1="0" x2="1" y1="0" y2="0" gradientUnits="objectBoundingBox"><stop offset="0%" stop-color="#6ee2f5"/><stop offset="100%" stop-color="#6454f0"/></linearGradient><path fill="url(#g)" d="M405.04-110.79h30.85v3.96h-30.85Z" transform="translate(-59.33 -42.98)"/></g><g transform="translate(238.916 407.481)scale(1.67)"><linearGradient id="h" x1="0" x2="1" y1="0" y2="0" gradientUnits="objectBoundingBox"><stop offset="0%" stop-color="#6ee2f5"/><stop offset="100%" stop-color="#6454f0"/></linearGradient><path fill="url(#h)" d="M405.04-103.83h30.85v3.96h-30.85Z" transform="translate(-59.33 -49.94)"/></g></g><path fill="transparent" stroke="transparent" d="M723 0h554v292H723z"/></g></svg>